<?xml version="1.0" encoding="utf-8"?>
<!-- Generator: Adobe Illustrator 21.1.0, SVG Export Plug-In . SVG Version: 6.00 Build 0)  -->
<svg version="1.1" id="Layer_1" xmlns="http://www.w3.org/2000/svg" xmlns:xlink="http://www.w3.org/1999/xlink" x="0px" y="0px"
    viewBox="0 0 324 164.5" style="enable-background:new 0 0 324 164.5;" xml:space="preserve">
    <style type="text/css">
        .st0 {
            fill: #1E314F;
        }

        .st1 {
            fill: #1572D4;
        }

        .st2 {
            fill: #1D9DE6;
        }

        .st3 {
            fill: #05BFE8;
        }
    </style>
    <g>
        <g>
            <g>
                <g>
                    <path class="st0" d="M114.4,114.4h-1v-8.8h-3.3v-0.9h7.5v0.9h-3.3V114.4z" />
                    <path class="st0" d="M122.9,113.5h5.2v0.9h-6.2v-9.7h6v0.9h-5v3.3h4.7v0.9h-4.7V113.5z" />
                    <path class="st0" d="M133.8,113.5h4.5v0.9h-5.5v-9.7h1V113.5z" />
                    <path class="st0" d="M143.4,113.5h4.5v0.9h-5.5v-9.7h1V113.5z" />
                    <path class="st0" d="M161.8,114.4h-1v-4.2l-3.6-5.5h1.2l2.9,4.6l2.9-4.6h1.2l-3.6,5.5V114.4z" />
                    <path class="st0" d="M178.7,109.5c0,0.7-0.1,1.4-0.4,2c-0.3,0.6-0.6,1.2-1.1,1.6c-0.5,0.5-1,0.8-1.6,1.1c-0.6,0.3-1.3,0.4-2,0.4
					c-0.7,0-1.4-0.1-2-0.4c-0.6-0.3-1.2-0.6-1.6-1.1c-0.5-0.5-0.8-1-1.1-1.6s-0.4-1.3-0.4-2c0-0.7,0.1-1.4,0.4-2
					c0.3-0.6,0.6-1.2,1.1-1.6c0.5-0.5,1-0.8,1.6-1.1c0.6-0.3,1.3-0.4,2-0.4c0.7,0,1.4,0.1,2,0.4c0.6,0.3,1.2,0.6,1.6,1.1
					c0.5,0.5,0.8,1,1.1,1.6C178.6,108.1,178.7,108.8,178.7,109.5z M177.7,109.5c0-0.6-0.1-1.1-0.3-1.6c-0.2-0.5-0.4-1-0.8-1.3
					c-0.3-0.4-0.8-0.7-1.3-0.9c-0.5-0.2-1.1-0.3-1.7-0.3c-0.6,0-1.2,0.1-1.7,0.3c-0.5,0.2-0.9,0.5-1.3,0.9c-0.3,0.4-0.6,0.8-0.8,1.3
					c-0.2,0.5-0.3,1-0.3,1.6c0,0.6,0.1,1.1,0.3,1.6c0.2,0.5,0.4,1,0.8,1.3c0.3,0.4,0.8,0.7,1.3,0.9c0.5,0.2,1.1,0.3,1.7,0.3
					c0.6,0,1.2-0.1,1.7-0.3c0.5-0.2,0.9-0.5,1.3-0.9c0.3-0.4,0.6-0.8,0.8-1.3C177.6,110.6,177.7,110.1,177.7,109.5z" />
                    <path class="st0" d="M190.4,110.8c0,0.4,0,0.8-0.1,1.3c-0.1,0.5-0.3,0.9-0.5,1.3c-0.3,0.4-0.6,0.7-1.1,1s-1.1,0.4-1.8,0.4
					c-0.7,0-1.3-0.1-1.8-0.4s-0.8-0.6-1.1-1c-0.3-0.4-0.4-0.8-0.5-1.3c-0.1-0.5-0.1-0.9-0.1-1.3v-6.1h1v6c0,0.5,0,0.9,0.1,1.2
					c0.1,0.3,0.2,0.6,0.4,0.8c0.2,0.2,0.3,0.4,0.5,0.5c0.2,0.1,0.4,0.2,0.6,0.3c0.2,0.1,0.4,0.1,0.5,0.1c0.2,0,0.3,0,0.5,0
					c0.1,0,0.3,0,0.4,0c0.2,0,0.4-0.1,0.5-0.1c0.2-0.1,0.4-0.2,0.6-0.3c0.2-0.1,0.4-0.3,0.5-0.5c0.2-0.2,0.3-0.5,0.4-0.8
					c0.1-0.3,0.1-0.7,0.1-1.2v-6h1V110.8z" />
                    <path class="st0" d="M196.6,114.4h-1v-9.7h3c1,0,1.8,0.2,2.3,0.6c0.6,0.4,0.9,1.1,0.9,2c0,0.7-0.2,1.2-0.6,1.7
					c-0.4,0.5-1,0.7-1.8,0.8l2.8,4.6h-1.2l-2.7-4.5h-1.6V114.4z M196.6,109h1.8c0.4,0,0.8,0,1.1-0.1c0.3-0.1,0.6-0.2,0.7-0.4
					c0.2-0.2,0.3-0.3,0.4-0.5c0.1-0.2,0.1-0.4,0.1-0.7c0-0.2,0-0.4-0.1-0.7c-0.1-0.2-0.2-0.4-0.4-0.5c-0.2-0.2-0.4-0.3-0.7-0.4
					c-0.3-0.1-0.7-0.1-1.1-0.1h-1.8V109z" />
                    <path class="st0" d="M217.7,106.3c-0.4-0.6-1.1-0.9-1.9-0.9c-0.3,0-0.5,0-0.8,0.1c-0.2,0.1-0.5,0.2-0.7,0.3
					c-0.2,0.1-0.4,0.3-0.5,0.5c-0.1,0.2-0.2,0.5-0.2,0.8c0,0.4,0.1,0.8,0.4,1c0.2,0.2,0.6,0.4,0.9,0.6c0.4,0.2,0.8,0.3,1.2,0.4
					c0.4,0.1,0.8,0.3,1.2,0.5c0.4,0.2,0.7,0.5,0.9,0.8c0.2,0.3,0.4,0.8,0.4,1.4c0,0.4-0.1,0.8-0.3,1.2c-0.2,0.4-0.4,0.6-0.7,0.9
					c-0.3,0.2-0.6,0.4-1,0.6s-0.8,0.2-1.1,0.2c-0.6,0-1.2-0.1-1.7-0.3c-0.5-0.2-1-0.6-1.4-1.1l0.9-0.6c0.2,0.4,0.5,0.6,0.9,0.9
					c0.4,0.2,0.8,0.3,1.3,0.3c0.2,0,0.5,0,0.7-0.1c0.2-0.1,0.5-0.2,0.7-0.3c0.2-0.2,0.4-0.3,0.5-0.6c0.1-0.2,0.2-0.5,0.2-0.8
					c0-0.3-0.1-0.6-0.2-0.8s-0.3-0.4-0.6-0.6c-0.2-0.2-0.5-0.3-0.8-0.4c-0.3-0.1-0.6-0.2-0.9-0.3c-0.3-0.1-0.6-0.2-0.9-0.3
					c-0.3-0.1-0.6-0.3-0.8-0.5s-0.4-0.4-0.6-0.7c-0.1-0.3-0.2-0.7-0.2-1.1c0-0.5,0.1-0.9,0.3-1.2c0.2-0.3,0.4-0.6,0.7-0.9
					c0.3-0.2,0.6-0.4,1-0.5c0.4-0.1,0.8-0.2,1.2-0.2c0.5,0,1,0.1,1.5,0.3c0.4,0.2,0.9,0.5,1.2,0.9L217.7,106.3z" />
                    <path class="st0" d="M226.6,114.4h-1v-8.8h-3.3v-0.9h7.5v0.9h-3.3V114.4z" />
                    <path class="st0" d="M243.6,109.5c0,0.7-0.1,1.4-0.4,2c-0.3,0.6-0.6,1.2-1.1,1.6c-0.5,0.5-1,0.8-1.6,1.1c-0.6,0.3-1.3,0.4-2,0.4
					s-1.4-0.1-2-0.4c-0.6-0.3-1.2-0.6-1.6-1.1c-0.5-0.5-0.8-1-1.1-1.6c-0.3-0.6-0.4-1.3-0.4-2c0-0.7,0.1-1.4,0.4-2
					c0.3-0.6,0.6-1.2,1.1-1.6c0.5-0.5,1-0.8,1.6-1.1c0.6-0.3,1.3-0.4,2-0.4s1.4,0.1,2,0.4c0.6,0.3,1.2,0.6,1.6,1.1
					c0.5,0.5,0.8,1,1.1,1.6C243.5,108.1,243.6,108.8,243.6,109.5z M242.5,109.5c0-0.6-0.1-1.1-0.3-1.6c-0.2-0.5-0.4-1-0.8-1.3
					c-0.3-0.4-0.8-0.7-1.3-0.9c-0.5-0.2-1.1-0.3-1.7-0.3c-0.6,0-1.2,0.1-1.7,0.3c-0.5,0.2-0.9,0.5-1.3,0.9c-0.3,0.4-0.6,0.8-0.8,1.3
					c-0.2,0.5-0.3,1-0.3,1.6c0,0.6,0.1,1.1,0.3,1.6c0.2,0.5,0.4,1,0.8,1.3c0.3,0.4,0.8,0.7,1.3,0.9c0.5,0.2,1.1,0.3,1.7,0.3
					c0.6,0,1.2-0.1,1.7-0.3c0.5-0.2,0.9-0.5,1.3-0.9c0.3-0.4,0.6-0.8,0.8-1.3C242.4,110.6,242.5,110.1,242.5,109.5z" />
                    <path class="st0" d="M249.3,114.4h-1v-9.7h3c1,0,1.8,0.2,2.3,0.6c0.6,0.4,0.9,1.1,0.9,2c0,0.7-0.2,1.2-0.6,1.7
					c-0.4,0.5-1,0.7-1.8,0.8l2.8,4.6h-1.2l-2.7-4.5h-1.6V114.4z M249.3,109h1.8c0.4,0,0.8,0,1.1-0.1c0.3-0.1,0.6-0.2,0.7-0.4
					c0.2-0.2,0.3-0.3,0.4-0.5c0.1-0.2,0.1-0.4,0.1-0.7c0-0.2,0-0.4-0.1-0.7c-0.1-0.2-0.2-0.4-0.4-0.5c-0.2-0.2-0.4-0.3-0.7-0.4
					c-0.3-0.1-0.7-0.1-1.1-0.1h-1.8V109z" />
                    <path class="st0" d="M262.2,114.4h-1v-4.2l-3.6-5.5h1.2l2.9,4.6l2.9-4.6h1.2l-3.6,5.5V114.4z" />
                </g>
            </g>
            <g>
                <g>
                    <path class="st0" d="M114.7,63.2h12.5c1.7,0,3.4,0.2,4.9,0.5c1.5,0.3,2.8,0.9,3.8,1.6c1,0.8,1.8,1.8,2.3,3.1
					c0.5,1.3,0.6,3,0.3,4.9c-0.3,2-0.8,3.6-1.7,4.9c-0.8,1.3-1.8,2.4-3.1,3.2c-1.2,0.8-2.6,1.3-4.2,1.7c-1.6,0.3-3.2,0.5-5,0.5h-5.4
					l-1.8,13.1H110L114.7,63.2z M120.1,77.4h4.9c0.7,0,1.3-0.1,1.9-0.2c0.6-0.1,1.2-0.3,1.8-0.6c0.5-0.3,1-0.7,1.4-1.2
					c0.4-0.5,0.6-1.2,0.7-2c0.1-0.9,0-1.5-0.3-2.1c-0.3-0.5-0.8-0.9-1.4-1.2c-0.6-0.3-1.2-0.5-2-0.5c-0.7-0.1-1.5-0.1-2.2-0.1h-3.8
					L120.1,77.4z" />
                    <path class="st0" d="M161.1,96.7h-6.8l0.4-3.1h-0.1c-0.3,0.4-0.7,0.9-1.2,1.3c-0.5,0.4-1,0.8-1.6,1.2c-0.6,0.3-1.3,0.6-2.1,0.9
					c-0.8,0.2-1.6,0.3-2.4,0.3c-1.8,0-3.2-0.3-4.3-0.8c-1-0.6-1.8-1.3-2.3-2.3c-0.5-1-0.7-2.1-0.8-3.5c0-1.3,0.1-2.8,0.3-4.3
					l1.8-12.7h7.1L147.7,85c-0.1,0.7-0.2,1.4-0.2,2.1c-0.1,0.7,0,1.4,0.1,2c0.2,0.6,0.5,1.1,0.9,1.5c0.4,0.4,1.1,0.6,2,0.6
					c0.9,0,1.7-0.2,2.3-0.5c0.6-0.3,1.1-0.8,1.5-1.3c0.4-0.6,0.7-1.2,0.9-1.9c0.2-0.7,0.4-1.4,0.4-2.2l1.6-11.5h7.1L161.1,96.7z"
                    />
                    <path class="st0" d="M171.8,60.9h7.1l-2.2,15.3h0.1c1-1.1,2.1-1.9,3.5-2.3c1.3-0.5,2.8-0.7,4.2-0.7c1.6,0,3.1,0.3,4.3,1
					c1.2,0.7,2.2,1.6,2.9,2.7c0.8,1.1,1.3,2.4,1.5,3.9s0.3,3,0.1,4.6c-0.3,1.7-0.8,3.3-1.5,4.8c-0.7,1.5-1.7,2.7-2.8,3.8
					c-1.1,1.1-2.4,1.9-3.9,2.5c-1.5,0.6-3.1,0.9-4.8,0.9c-0.8,0-1.6-0.1-2.3-0.3c-0.7-0.2-1.3-0.5-1.9-0.9c-0.6-0.3-1.1-0.7-1.5-1.2
					c-0.4-0.4-0.7-0.8-0.9-1.3h-0.1l-0.4,3h-6.5L171.8,60.9z M175,85.2c-0.3,1.7,0,3.1,0.9,4.2c0.8,1.1,2.2,1.6,4,1.6
					c1.8,0,3.3-0.5,4.4-1.6c1.2-1.1,1.9-2.5,2.1-4.2c0.3-1.7,0-3.1-0.9-4.2c-0.9-1.1-2.2-1.6-4-1.6c-1.8,0-3.3,0.5-4.4,1.6
					C175.9,82.1,175.2,83.5,175,85.2z" />
                    <path class="st0" d="M201.1,60.9h7.1l-5,35.8h-7.1L201.1,60.9z" />
                    <path class="st0" d="M211.6,73.7h7.1l-3.2,23h-7.1L211.6,73.7z M212,66.5c0.1-0.6,0.3-1.1,0.6-1.6c0.3-0.5,0.6-0.9,1.1-1.3
					c0.4-0.4,0.9-0.7,1.4-0.9c0.5-0.2,1.1-0.3,1.7-0.3c1.1,0,2,0.4,2.7,1.2c0.7,0.8,0.9,1.8,0.8,2.9c-0.1,0.6-0.2,1.1-0.5,1.6
					c-0.3,0.5-0.6,0.9-1.1,1.3c-0.4,0.4-0.9,0.7-1.4,0.9c-0.5,0.2-1.1,0.3-1.7,0.3c-0.6,0-1.1-0.1-1.6-0.3c-0.5-0.2-0.9-0.5-1.2-0.9
					c-0.3-0.4-0.5-0.8-0.7-1.3C212,67.6,212,67.1,212,66.5z" />
                    <path class="st0" d="M238.4,81.2c-0.3-0.5-0.7-0.9-1.3-1.3c-0.6-0.3-1.2-0.5-2-0.5c-1.8,0-3.3,0.5-4.4,1.6
					c-1.1,1.1-1.8,2.5-2.1,4.2c-0.3,1.7,0,3.1,0.9,4.2c0.8,1.1,2.2,1.6,4,1.6c0.8,0,1.5-0.2,2.1-0.5c0.6-0.3,1.2-0.8,1.7-1.2l4,4.9
					c-1.3,1.1-2.7,1.9-4.3,2.4c-1.5,0.5-3,0.7-4.4,0.7c-1.8,0-3.4-0.3-4.9-0.9c-1.5-0.6-2.7-1.4-3.7-2.4c-1-1.1-1.7-2.3-2.2-3.8
					c-0.5-1.5-0.6-3.1-0.3-5c0.3-1.8,0.8-3.5,1.7-5c0.9-1.5,1.9-2.8,3.2-3.8c1.3-1.1,2.8-1.9,4.4-2.4c1.6-0.6,3.3-0.9,5.1-0.9
					c1.4,0,2.8,0.2,4.2,0.7c1.4,0.5,2.6,1.3,3.6,2.4L238.4,81.2z" />
                    <path class="st0" d="M258.3,93.9L258.3,93.9c-1,1.2-2.2,2.1-3.6,2.7c-1.4,0.5-2.8,0.8-4.3,0.8c-1.1,0-2.1-0.2-3-0.4
					c-0.9-0.3-1.8-0.8-2.4-1.4c-0.7-0.6-1.2-1.3-1.5-2.2c-0.3-0.9-0.4-1.9-0.2-3.1c0.3-2,1-3.5,2.2-4.6c1.2-1.1,2.7-1.9,4.3-2.4
					c1.7-0.5,3.4-0.8,5.2-0.9c1.8-0.1,3.5-0.1,4.9-0.1c0.2-1.3-0.2-2.3-0.9-3c-0.8-0.7-1.8-1.1-3-1.1c-1.2,0-2.3,0.2-3.3,0.7
					c-1,0.5-2,1.2-2.9,2l-3.2-3.9c1.5-1.2,3.1-2.2,5-2.8c1.8-0.6,3.7-0.9,5.6-0.9c2.1,0,3.8,0.3,5,0.8c1.3,0.5,2.3,1.3,2.9,2.3
					c0.7,1,1,2.2,1.2,3.7c0.1,1.5,0,3.2-0.3,5.1l-1.6,11.7h-6.5L258.3,93.9z M257.5,86.7c-0.5,0-1.2,0-2,0.1c-0.8,0-1.6,0.2-2.4,0.4
					c-0.8,0.2-1.5,0.6-2,1c-0.6,0.4-0.9,1.1-1,1.8c-0.1,0.4,0,0.8,0.1,1.1c0.2,0.3,0.4,0.6,0.7,0.8c0.3,0.2,0.6,0.4,1,0.5
					c0.4,0.1,0.8,0.1,1.2,0.1c0.7,0,1.4-0.1,2.1-0.3c0.7-0.2,1.3-0.5,1.8-0.8c0.6-0.3,1-0.8,1.4-1.3c0.4-0.5,0.6-1.2,0.7-1.9
					l0.2-1.5H257.5z" />
                </g>
            </g>
        </g>
        <path class="st1" d="M65.5,100.8c0.1-0.3,0.2-0.5,0.4-0.8l8.7-18.8c2.7-5.1,3.7-11.1,2.3-17.1c-0.3-1.4-0.7-2.7-1.3-4
		c-1.3-5.1-4.1-6.6-4.1-6.6L61.3,89.8l0,0.1l-7,24.5C54.2,114.4,59.4,113.6,65.5,100.8L65.5,100.8L65.5,100.8z" />
        <path class="st2" d="M89.6,57.5c-1.9-8.1-7.3-14.5-14.2-17.9v0c-2,7.2-1.8,14.9,0.6,22c0,0.1,0.1,0.2,0.1,0.3
		c0.1,0.2,0.1,0.4,0.2,0.7c0,0.1,0.1,0.3,0.1,0.4c0.1,0.4,0.2,0.8,0.3,1.1c0.1,0.3,0.1,0.7,0.2,1c0,0.1,0,0.2,0.1,0.3
		c0,0.3,0.1,0.5,0.1,0.8c0,0.1,0,0.2,0,0.3c0,0.3,0.1,0.7,0.1,1c0,0,0,0.1,0,0.1c0,0.3,0,0.6,0.1,0.9c0,0.1,0,0.2,0,0.3
		c0,0.3,0,0.6,0,0.8c0,0.1,0,0.1,0,0.2c0,0.3,0,0.7,0,1c0,0,0,0.1,0,0.1c0,0.3,0,0.6-0.1,0.9c0,0.1,0,0.1,0,0.2
		c0,0.3-0.1,0.6-0.1,0.9c0,0,0,0,0,0.1c0,0.3-0.1,0.7-0.2,1c0,0,0,0.1,0,0.1c-0.1,0.3-0.1,0.6-0.2,0.9c0,0,0,0.1,0,0.1
		c-0.2,0.7-0.3,1.4-0.6,2c0,0,0,0,0,0.1c-0.1,0.3-0.2,0.6-0.3,0.9c0,0,0,0,0,0.1c-0.2,0.7-0.5,1.3-0.8,1.9c0,0,0,0,0,0
		c-0.2,0.3-0.3,0.6-0.5,0.9l-6.8,14.7c2.1-3.9,7-7.8,9.9-9.9c0.7-0.5,1.4-0.9,2.1-1.4c0,0,0.1-0.1,0.1-0.1l0,0
		C87.9,78.4,92,68,89.6,57.5z" />
        <path class="st3" d="M100.6,47.8C97.9,36.4,90,27.6,80,23.5v0c-2.3,8.1-0.6,16.9,4.6,23.5c0,0.1,0.1,0.1,0.1,0.2
		c0.1,0.1,0.1,0.2,0.2,0.3c0.1,0.1,0.1,0.2,0.2,0.3c0.1,0.1,0.1,0.2,0.2,0.3c0.1,0.1,0.1,0.2,0.2,0.3c0.1,0.1,0.1,0.2,0.2,0.3
		c0.1,0.1,0.1,0.2,0.2,0.3c0.1,0.1,0.1,0.2,0.2,0.3c0.1,0.1,0.1,0.2,0.2,0.3c0.1,0.1,0.1,0.2,0.2,0.3c0.1,0.1,0.1,0.2,0.2,0.3
		c0.1,0.1,0.1,0.2,0.2,0.3c0.1,0.1,0.1,0.2,0.2,0.3c0.1,0.1,0.1,0.2,0.2,0.3c0.1,0.1,0.1,0.2,0.2,0.3c0.1,0.1,0.1,0.2,0.2,0.3
		c0.1,0.1,0.1,0.2,0.2,0.4c0,0.1,0.1,0.2,0.1,0.3c0.1,0.1,0.1,0.2,0.2,0.4c0,0.1,0.1,0.2,0.1,0.3c0.1,0.1,0.1,0.3,0.2,0.4
		c0,0.1,0.1,0.2,0.1,0.3c0,0.1,0.1,0.3,0.1,0.4c0,0.1,0.1,0.2,0.1,0.3c0,0.1,0.1,0.3,0.1,0.4c0,0.1,0.1,0.2,0.1,0.3
		c0,0.1,0.1,0.3,0.1,0.4c0,0.1,0.1,0.2,0.1,0.3c0,0.2,0.1,0.3,0.1,0.5c0,0.1,0,0.2,0.1,0.2c0.1,0.2,0.1,0.5,0.2,0.7
		c0.1,0.4,0.2,0.8,0.2,1.2c0,0.1,0,0.2,0.1,0.4c0.1,0.3,0.1,0.6,0.1,0.9c0,0.1,0,0.2,0,0.3c0,0.4,0.1,0.8,0.1,1.2c0,0.1,0,0.1,0,0.2
		c0,0.3,0,0.7,0,1c0,0.1,0,0.3,0,0.4c0,0.3,0,0.6,0,0.9c0,0.1,0,0.2,0,0.3c0,0.4,0,0.8-0.1,1.1c0,0.1,0,0.2,0,0.4
		c0,0.3,0,0.5-0.1,0.8c0,0.1,0,0.3-0.1,0.4c0,0.3-0.1,0.5-0.1,0.8c0,0.1,0,0.3-0.1,0.4c-0.1,0.3-0.1,0.7-0.2,1
		c0,0.2-0.1,0.3-0.1,0.5c0,0.2-0.1,0.4-0.2,0.6c0,0.2-0.1,0.4-0.1,0.5c-0.1,0.2-0.1,0.4-0.2,0.6c-0.1,0.3-0.2,0.6-0.3,0.9
		c-0.1,0.2-0.1,0.3-0.2,0.5c-0.1,0.2-0.2,0.4-0.2,0.6c-0.1,0.1-0.1,0.3-0.2,0.4c-0.1,0.2-0.2,0.4-0.3,0.6c0,0.1-0.1,0.1-0.1,0.2
		c-0.2,0.5-0.4,0.9-0.7,1.4c0,0.1-0.1,0.1-0.1,0.2c-0.1,0.2-0.3,0.5-0.4,0.7c0,0.1-0.1,0.1-0.1,0.2c-0.4,0.7-0.9,1.5-1.4,2.2
		c0,0,0,0.1-0.1,0.1c-0.7,1-1.5,1.9-2.4,2.8c0,0,0,0,0,0c-0.9,0.9-1.8,1.7-2.8,2.5l0,0c0,0,0,0-0.1,0.1c0,0,0,0,0,0
		c-0.3,0.3-0.7,0.5-1,0.7l0,0c-0.4,0.2-0.7,0.5-1.1,0.7c-2.9,2.1-7.8,6-9.9,9.9l0,0c1.4-2.2,4.2-5.2,9.8-7.4
		c0.7-0.2,1.4-0.5,2.1-0.7c0,0,0,0,0,0l0,0C95.2,81.6,104.4,64.7,100.6,47.8z" />
    </g>
</svg>